<?xml version="1.0" encoding="UTF-8"?>
<svg width="19px" height="19px" viewBox="0 0 19 19" version="1.1" xmlns="http://www.w3.org/2000/svg" xmlns:xlink="http://www.w3.org/1999/xlink">
    <!-- Generator: Sketch 53.2 (72643) - https://sketchapp.com -->
    <title>search-icon</title>
    <desc>Created with Sketch.</desc>
    <g id="Page-1" stroke="none" stroke-width="1" fill="none" fill-rule="evenodd">
        <g id="search-icon" transform="translate(0.000000, -0.000000)" fill="#FFFFFF" fill-rule="nonzero">
            <path d="M18.0151658,15.7927008 L14.4585083,12.2360433 C14.2979771,12.0755121 14.0803682,11.9863281 13.8520572,11.9863281 L13.2705776,11.9863281 C14.2551688,10.7270502 14.8402158,9.14314255 14.8402158,7.42010789 C14.8402158,3.32121175 11.519004,0 7.42010789,0 C3.32121175,0 0,3.32121175 0,7.42010789 C0,11.519004 3.32121175,14.8402158 7.42010789,14.8402158 C9.14314255,14.8402158 10.7270502,14.2551688 11.9863281,13.2705776 L11.9863281,13.8520572 C11.9863281,14.0803682 12.0755121,14.2979771 12.2360433,14.4585083 L15.7927008,18.0151658 C16.1280326,18.3504976 16.6702712,18.3504976 17.0020357,18.0151658 L18.0115984,17.005603 C18.3469302,16.6702712 18.3469302,16.1280326 18.0151658,15.7927008 Z M7.42010789,11.9863281 C4.89798468,11.9863281 2.85388765,9.94579846 2.85388765,7.42010789 C2.85388765,4.89798468 4.89441732,2.85388765 7.42010789,2.85388765 C9.9422311,2.85388765 11.9863281,4.89441732 11.9863281,7.42010789 C11.9863281,9.9422311 9.94579846,11.9863281 7.42010789,11.9863281 Z" id="Shape"></path>
        </g>
    </g>
</svg>