<?xml version="1.0" encoding="UTF-8"?>
<svg width="23px" height="16px" viewBox="0 0 23 16" version="1.1" xmlns="http://www.w3.org/2000/svg" xmlns:xlink="http://www.w3.org/1999/xlink">
    <!-- Generator: Sketch 53.2 (72643) - https://sketchapp.com -->
    <title>youtube-icon</title>
    <desc>Created with Sketch.</desc>
    <g id="Page-1" stroke="none" stroke-width="1" fill="none" fill-rule="evenodd" opacity="0.842238653">
        <g id="youtube-icon" fill="#FFFFFF" fill-rule="nonzero">
            <g id="Page-1">
                <g id="Desktop-HD">
                    <g id="Group-32">
                        <g id="Group-20">
                            <g id="Group-35">
                                <g id="Group-15">
                                    <g id="Group-17">
                                        <g id="Line-Group-Copy-2">
                                            <path d="M22.4593409,2.4471305 C22.1955271,1.4838857 21.4182398,0.7252643 20.4313211,0.4678152 C18.6424601,0 11.4693334,0 11.4693334,0 C11.4693334,0 4.2962485,0 2.5073455,0.4678152 C1.5204268,0.725305 0.7431396,1.4838857 0.4793257,2.4471305 C0,4.1930677 0,7.8358029 0,7.8358029 C0,7.8358029 0,11.4785381 0.4793257,13.2244753 C0.7431396,14.1877201 1.5204268,14.9147358 2.5073455,15.1721848 C4.2962485,15.64 11.4693334,15.64 11.4693334,15.64 C11.4693334,15.64 18.6424181,15.64 20.4313211,15.1721848 C21.4182398,14.9147358 22.1955271,14.1877201 22.4593409,13.2244753 C22.9386666,11.4785381 22.9386666,7.8358029 22.9386666,7.8358029 C22.9386666,7.8358029 22.9386666,4.1930677 22.4593409,2.4471305 Z M9.1233171,11.1431334 L9.1233171,4.5284724 L15.1186265,7.8358844 L9.1233171,11.1431334 Z" id="Shape"></path>
                                        </g>
                                    </g>
                                </g>
                            </g>
                        </g>
                    </g>
                </g>
            </g>
        </g>
    </g>
</svg>